<svg xmlns="http://www.w3.org/2000/svg" version="1.1" xmlns:xlink="http://www.w3.org/1999/xlink" width="1000" height="1000"><style>
    #light-icon {
      display: inline;
    }
    #dark-icon {
      display: none;
    }

    @media (prefers-color-scheme: dark) {
      #light-icon {
        display: none;
      }
      #dark-icon {
        display: inline;
      }
    }
  </style><g id="light-icon"><svg xmlns="http://www.w3.org/2000/svg" version="1.1" xmlns:xlink="http://www.w3.org/1999/xlink" width="1000" height="1000"><g><g transform="matrix(1.953125,0,0,1.953125,0,0)"><svg xmlns="http://www.w3.org/2000/svg" version="1.1" xmlns:xlink="http://www.w3.org/1999/xlink" width="512" height="512"><svg width="512" height="512" viewBox="0 0 512 512" fill="none" xmlns="http://www.w3.org/2000/svg">
<rect width="512" height="512" rx="256" fill="white"></rect>
<path d="M307.033 68.8758L68.8758 206.376L206.376 444.533L444.533 307.033L307.033 68.8758Z" fill="#4CBCCC" fill-opacity="0.4"></path>
<path d="M307.033 68.8758L68.8758 206.376L206.376 444.533L444.533 307.033L307.033 68.8758Z" fill="white" fill-opacity="0.2"></path>
<path d="M307.033 68.8758L68.8758 206.376L206.376 444.533L444.533 307.033L307.033 68.8758Z" fill="#3A6AA9" fill-opacity="0.2"></path>
<path d="M394.204 119.204H119.204V394.204H394.204V119.204Z" fill="#4CBCCC" fill-opacity="0.4"></path>
<path d="M394.204 119.204H119.204V394.204H394.204V119.204Z" fill="white" fill-opacity="0.2"></path>
<path d="M394.204 119.204H119.204V394.204H394.204V119.204Z" fill="#3A6AA9" fill-opacity="0.2"></path>
<path d="M353.931 88.3018L88.3019 159.477L159.477 425.107L425.107 353.931L353.931 88.3018Z" fill="#4CBCCC" fill-opacity="0.4"></path>
<path d="M353.931 88.3018L88.3019 159.477L159.477 425.107L425.107 353.931L353.931 88.3018Z" fill="white" fill-opacity="0.2"></path>
<path d="M353.931 88.3018L88.3019 159.477L159.477 425.107L425.107 353.931L353.931 88.3018Z" fill="#3A6AA9" fill-opacity="0.4"></path>
<path d="M159.477 88.3016L88.3019 353.931L353.931 425.106L425.107 159.477L159.477 88.3016Z" fill="#4CBCCC" fill-opacity="0.4"></path>
<path d="M159.477 88.3016L88.3019 353.931L353.931 425.106L425.107 159.477L159.477 88.3016Z" fill="white" fill-opacity="0.2"></path>
<path d="M159.477 88.3016L88.3019 353.931L353.931 425.106L425.107 159.477L159.477 88.3016Z" fill="#3A6AA9" fill-opacity="0.4"></path>
<path d="M256.704 62.2498L62.25 256.704L256.704 451.159L451.159 256.704L256.704 62.2498Z" fill="#4CBCCC" fill-opacity="0.4"></path>
<path d="M256.704 62.2498L62.25 256.704L256.704 451.159L451.159 256.704L256.704 62.2498Z" fill="white" fill-opacity="0.2"></path>
<path d="M256.704 62.2498L62.25 256.704L256.704 451.159L451.159 256.704L256.704 62.2498Z" fill="#3A6AA9" fill-opacity="0.4"></path>
<path d="M206.376 68.8763L68.8758 307.033L307.033 444.533L444.533 206.376L206.376 68.8763Z" fill="#4CBCCC" fill-opacity="0.4"></path>
<path d="M206.376 68.8763L68.8758 307.033L307.033 444.533L444.533 206.376L206.376 68.8763Z" fill="white" fill-opacity="0.2"></path>
<path d="M206.376 68.8763L68.8758 307.033L307.033 444.533L444.533 206.376L206.376 68.8763Z" fill="#3A6AA9" fill-opacity="0.2"></path>
<g filter="url(#filter0_f_31_7)">
<path d="M256 381C325.036 381 381 325.036 381 256C381 186.964 325.036 131 256 131C186.964 131 131 186.964 131 256C131 325.036 186.964 381 256 381Z" fill="white"></path>
</g>
<path d="M256 339.333C302.024 339.333 339.333 302.024 339.333 256C339.333 209.976 302.024 172.667 256 172.667C209.976 172.667 172.667 209.976 172.667 256C172.667 302.024 209.976 339.333 256 339.333Z" fill="white"></path>
<path d="M360.231 266.613C354.296 266.621 348.51 268.465 343.665 271.892C338.819 275.319 335.152 280.16 333.167 285.752H309.706L292.75 234.875C292.102 232.935 290.852 231.254 289.181 230.079C287.51 228.902 285.506 228.292 283.465 228.335C281.421 228.379 279.446 229.075 277.827 230.323C276.208 231.571 275.031 233.304 274.471 235.269L247.846 328.435L216.546 140.619C216.183 138.45 215.083 136.473 213.435 135.019C211.785 133.565 209.685 132.724 207.488 132.636C205.291 132.548 203.131 133.22 201.371 134.537C199.611 135.855 198.358 137.739 197.824 139.871L161.355 285.752H130.544C128.006 285.752 125.572 286.76 123.777 288.556C121.982 290.35 120.974 292.785 120.974 295.323C120.974 297.86 121.982 300.296 123.777 302.09C125.572 303.885 128.006 304.894 130.544 304.894H168.825C170.96 304.894 173.033 304.179 174.714 302.867C176.396 301.552 177.591 299.715 178.109 297.644L205.229 189.158L235.95 373.458C236.304 375.604 237.377 377.567 238.996 379.019C240.612 380.473 242.679 381.333 244.85 381.456H245.394C247.473 381.454 249.494 380.777 251.152 379.525C252.81 378.273 254.017 376.515 254.587 374.517L284.375 270.273L293.729 298.35C294.365 300.254 295.583 301.913 297.215 303.088C298.844 304.26 300.802 304.894 302.81 304.894H333.167C334.921 309.856 338.006 314.242 342.083 317.569C346.163 320.896 351.077 323.04 356.292 323.762C361.504 324.485 366.817 323.76 371.648 321.669C376.477 319.575 380.64 316.196 383.677 311.898C386.717 307.6 388.515 302.55 388.877 297.298C389.24 292.046 388.152 286.798 385.731 282.123C383.31 277.448 379.652 273.529 375.156 270.794C370.658 268.058 365.496 266.61 360.231 266.613Z" fill="#4CBCCC"></path>
<defs>
<filter id="filter0_f_31_7" x="101" y="101" width="310" height="310" filterUnits="userSpaceOnUse" color-interpolation-filters="sRGB">
<feFlood flood-opacity="0" result="BackgroundImageFix"></feFlood>
<feBlend mode="normal" in="SourceGraphic" in2="BackgroundImageFix" result="shape"></feBlend>
<feGaussianBlur stdDeviation="15" result="effect1_foregroundBlur_31_7"></feGaussianBlur>
</filter>
</defs>
</svg></svg></g></g></svg></g><g id="dark-icon"><svg xmlns="http://www.w3.org/2000/svg" version="1.1" xmlns:xlink="http://www.w3.org/1999/xlink" width="1000" height="1000"><g><g transform="matrix(1.953125,0,0,1.953125,0,0)"><svg xmlns="http://www.w3.org/2000/svg" version="1.1" xmlns:xlink="http://www.w3.org/1999/xlink" width="512" height="512"><svg width="512" height="512" viewBox="0 0 512 512" fill="none" xmlns="http://www.w3.org/2000/svg">
<g clip-path="url(#clip0_31_80)">
<rect width="512" height="512" rx="256" fill="black" fill-opacity="0.1"></rect>
<g filter="url(#filter0_i_31_80)">
<path d="M157.161 84.2769L84.2771 356.282L356.282 429.165L429.165 157.16L157.161 84.2769Z" fill="#3A6AA9" fill-opacity="0.5"></path>
<path d="M157.161 84.2769L84.2771 356.282L356.282 429.165L429.165 157.16L157.161 84.2769Z" fill="#2E3B4E" fill-opacity="0.5"></path>
</g>
<g filter="url(#filter1_i_31_80)">
<path d="M256.721 57.5998L57.6 256.721L256.721 455.842L455.843 256.721L256.721 57.5998Z" fill="#3A6AA9" fill-opacity="0.5"></path>
<path d="M256.721 57.5998L57.6 256.721L256.721 455.842L455.843 256.721L256.721 57.5998Z" fill="#2E3B4E" fill-opacity="0.5"></path>
</g>
<g filter="url(#filter2_i_31_80)">
<path d="M356.282 84.2771L84.2771 157.161L157.161 429.165L429.165 356.282L356.282 84.2771Z" fill="#3A6AA9" fill-opacity="0.5"></path>
<path d="M356.282 84.2771L84.2771 157.161L157.161 429.165L429.165 356.282L356.282 84.2771Z" fill="#2E3B4E" fill-opacity="0.5"></path>
</g>
<g filter="url(#filter3_i_31_80)">
<path d="M205.185 64.3854L64.3849 308.258L308.258 449.058L449.058 205.185L205.185 64.3854Z" fill="#2E3B4E" fill-opacity="0.5"></path>
<path d="M205.185 64.3854L64.3849 308.258L308.258 449.058L449.058 205.185L205.185 64.3854Z" fill="#3A6AA9" fill-opacity="0.5"></path>
</g>
<g filter="url(#filter4_i_31_80)">
<path d="M397.521 115.921H115.921V397.521H397.521V115.921Z" fill="#3A6AA9" fill-opacity="0.5"></path>
<path d="M397.521 115.921H115.921V397.521H397.521V115.921Z" fill="#2E3B4E" fill-opacity="0.5"></path>
</g>
<g filter="url(#filter5_i_31_80)">
<path d="M308.258 64.3848L64.3848 205.185L205.185 449.058L449.058 308.258L308.258 64.3848Z" fill="#3A6AA9" fill-opacity="0.5"></path>
<path d="M308.258 64.3848L64.3848 205.185L205.185 449.058L449.058 308.258L308.258 64.3848Z" fill="#2E3B4E" fill-opacity="0.5"></path>
</g>
<g filter="url(#filter6_f_31_80)">
<path d="M256 384C326.692 384 384 326.692 384 256C384 185.308 326.692 128 256 128C185.308 128 128 185.308 128 256C128 326.692 185.308 384 256 384Z" fill="#2E3B4E"></path>
</g>
<path d="M256 341.333C303.128 341.333 341.333 303.128 341.333 256C341.333 208.872 303.128 170.667 256 170.667C208.872 170.667 170.667 208.872 170.667 256C170.667 303.128 208.872 341.333 256 341.333Z" fill="#2E3B4E"></path>
<path d="M362.733 266.867C356.655 266.876 350.731 268.764 345.769 272.273C340.806 275.782 337.052 280.74 335.019 286.466H310.995L293.632 234.368C292.969 232.382 291.689 230.66 289.978 229.457C288.267 228.252 286.214 227.627 284.124 227.671C282.031 227.716 280.009 228.429 278.351 229.707C276.693 230.985 275.488 232.759 274.914 234.771L247.65 330.174L215.599 137.85C215.228 135.629 214.101 133.604 212.413 132.116C210.724 130.627 208.574 129.765 206.324 129.675C204.074 129.586 201.862 130.273 200.06 131.622C198.258 132.972 196.975 134.9 196.427 137.084L159.083 286.466H127.533C124.934 286.466 122.442 287.499 120.604 289.338C118.766 291.174 117.733 293.668 117.733 296.267C117.733 298.865 118.766 301.359 120.604 303.196C122.442 305.035 124.934 306.067 127.533 306.067H166.733C168.919 306.067 171.041 305.335 172.764 303.991C174.486 302.645 175.709 300.764 176.239 298.643L204.01 187.554L235.469 376.277C235.831 378.475 236.93 380.484 238.588 381.971C240.243 383.46 242.359 384.341 244.582 384.467H245.139C247.268 384.465 249.338 383.772 251.036 382.49C252.734 381.208 253.969 379.407 254.554 377.361L285.056 270.615L294.635 299.366C295.285 301.316 296.533 303.014 298.204 304.218C299.872 305.419 301.877 306.067 303.934 306.067H335.019C336.815 311.149 339.974 315.639 344.149 319.046C348.326 322.453 353.359 324.649 358.699 325.389C364.036 326.129 369.476 325.387 374.423 323.245C379.369 321.101 383.631 317.641 386.741 313.239C389.854 308.838 391.695 303.667 392.066 298.289C392.437 292.911 391.324 287.537 388.845 282.75C386.366 277.963 382.62 273.95 378.016 271.149C373.41 268.348 368.124 266.865 362.733 266.867Z" fill="white"></path>
</g>
<defs>
<filter id="filter0_i_31_80" x="84.2771" y="84.2769" width="344.888" height="348.888" filterUnits="userSpaceOnUse" color-interpolation-filters="sRGB">
<feFlood flood-opacity="0" result="BackgroundImageFix"></feFlood>
<feBlend mode="normal" in="SourceGraphic" in2="BackgroundImageFix" result="shape"></feBlend>
<feColorMatrix in="SourceAlpha" type="matrix" values="0 0 0 0 0 0 0 0 0 0 0 0 0 0 0 0 0 0 127 0" result="hardAlpha"></feColorMatrix>
<feOffset dy="4"></feOffset>
<feGaussianBlur stdDeviation="2"></feGaussianBlur>
<feComposite in2="hardAlpha" operator="arithmetic" k2="-1" k3="1"></feComposite>
<feColorMatrix type="matrix" values="0 0 0 0 0 0 0 0 0 0 0 0 0 0 0 0 0 0 0.25 0"></feColorMatrix>
<feBlend mode="normal" in2="shape" result="effect1_innerShadow_31_80"></feBlend>
</filter>
<filter id="filter1_i_31_80" x="57.6" y="57.5998" width="398.243" height="402.243" filterUnits="userSpaceOnUse" color-interpolation-filters="sRGB">
<feFlood flood-opacity="0" result="BackgroundImageFix"></feFlood>
<feBlend mode="normal" in="SourceGraphic" in2="BackgroundImageFix" result="shape"></feBlend>
<feColorMatrix in="SourceAlpha" type="matrix" values="0 0 0 0 0 0 0 0 0 0 0 0 0 0 0 0 0 0 127 0" result="hardAlpha"></feColorMatrix>
<feOffset dy="4"></feOffset>
<feGaussianBlur stdDeviation="2"></feGaussianBlur>
<feComposite in2="hardAlpha" operator="arithmetic" k2="-1" k3="1"></feComposite>
<feColorMatrix type="matrix" values="0 0 0 0 0 0 0 0 0 0 0 0 0 0 0 0 0 0 0.25 0"></feColorMatrix>
<feBlend mode="normal" in2="shape" result="effect1_innerShadow_31_80"></feBlend>
</filter>
<filter id="filter2_i_31_80" x="84.2771" y="84.2771" width="344.888" height="348.888" filterUnits="userSpaceOnUse" color-interpolation-filters="sRGB">
<feFlood flood-opacity="0" result="BackgroundImageFix"></feFlood>
<feBlend mode="normal" in="SourceGraphic" in2="BackgroundImageFix" result="shape"></feBlend>
<feColorMatrix in="SourceAlpha" type="matrix" values="0 0 0 0 0 0 0 0 0 0 0 0 0 0 0 0 0 0 127 0" result="hardAlpha"></feColorMatrix>
<feOffset dy="4"></feOffset>
<feGaussianBlur stdDeviation="2"></feGaussianBlur>
<feComposite in2="hardAlpha" operator="arithmetic" k2="-1" k3="1"></feComposite>
<feColorMatrix type="matrix" values="0 0 0 0 0 0 0 0 0 0 0 0 0 0 0 0 0 0 0.25 0"></feColorMatrix>
<feBlend mode="normal" in2="shape" result="effect1_innerShadow_31_80"></feBlend>
</filter>
<filter id="filter3_i_31_80" x="64.3849" y="64.3854" width="384.673" height="388.673" filterUnits="userSpaceOnUse" color-interpolation-filters="sRGB">
<feFlood flood-opacity="0" result="BackgroundImageFix"></feFlood>
<feBlend mode="normal" in="SourceGraphic" in2="BackgroundImageFix" result="shape"></feBlend>
<feColorMatrix in="SourceAlpha" type="matrix" values="0 0 0 0 0 0 0 0 0 0 0 0 0 0 0 0 0 0 127 0" result="hardAlpha"></feColorMatrix>
<feOffset dy="4"></feOffset>
<feGaussianBlur stdDeviation="2"></feGaussianBlur>
<feComposite in2="hardAlpha" operator="arithmetic" k2="-1" k3="1"></feComposite>
<feColorMatrix type="matrix" values="0 0 0 0 0 0 0 0 0 0 0 0 0 0 0 0 0 0 0.25 0"></feColorMatrix>
<feBlend mode="normal" in2="shape" result="effect1_innerShadow_31_80"></feBlend>
</filter>
<filter id="filter4_i_31_80" x="115.921" y="115.921" width="281.6" height="285.6" filterUnits="userSpaceOnUse" color-interpolation-filters="sRGB">
<feFlood flood-opacity="0" result="BackgroundImageFix"></feFlood>
<feBlend mode="normal" in="SourceGraphic" in2="BackgroundImageFix" result="shape"></feBlend>
<feColorMatrix in="SourceAlpha" type="matrix" values="0 0 0 0 0 0 0 0 0 0 0 0 0 0 0 0 0 0 127 0" result="hardAlpha"></feColorMatrix>
<feOffset dy="4"></feOffset>
<feGaussianBlur stdDeviation="2"></feGaussianBlur>
<feComposite in2="hardAlpha" operator="arithmetic" k2="-1" k3="1"></feComposite>
<feColorMatrix type="matrix" values="0 0 0 0 0 0 0 0 0 0 0 0 0 0 0 0 0 0 0.25 0"></feColorMatrix>
<feBlend mode="normal" in2="shape" result="effect1_innerShadow_31_80"></feBlend>
</filter>
<filter id="filter5_i_31_80" x="64.3848" y="64.3848" width="384.673" height="388.673" filterUnits="userSpaceOnUse" color-interpolation-filters="sRGB">
<feFlood flood-opacity="0" result="BackgroundImageFix"></feFlood>
<feBlend mode="normal" in="SourceGraphic" in2="BackgroundImageFix" result="shape"></feBlend>
<feColorMatrix in="SourceAlpha" type="matrix" values="0 0 0 0 0 0 0 0 0 0 0 0 0 0 0 0 0 0 127 0" result="hardAlpha"></feColorMatrix>
<feOffset dy="4"></feOffset>
<feGaussianBlur stdDeviation="2"></feGaussianBlur>
<feComposite in2="hardAlpha" operator="arithmetic" k2="-1" k3="1"></feComposite>
<feColorMatrix type="matrix" values="0 0 0 0 0 0 0 0 0 0 0 0 0 0 0 0 0 0 0.25 0"></feColorMatrix>
<feBlend mode="normal" in2="shape" result="effect1_innerShadow_31_80"></feBlend>
</filter>
<filter id="filter6_f_31_80" x="98" y="98" width="316" height="316" filterUnits="userSpaceOnUse" color-interpolation-filters="sRGB">
<feFlood flood-opacity="0" result="BackgroundImageFix"></feFlood>
<feBlend mode="normal" in="SourceGraphic" in2="BackgroundImageFix" result="shape"></feBlend>
<feGaussianBlur stdDeviation="15" result="effect1_foregroundBlur_31_80"></feGaussianBlur>
</filter>
<clipPath id="clip0_31_80">
<rect width="512" height="512" rx="256" fill="white"></rect>
</clipPath>
</defs>
</svg></svg></g></g></svg></g></svg>