<svg width="507" height="240" viewBox="0 0 507 240" fill="none" xmlns="http://www.w3.org/2000/svg">
<g clip-path="url(#clip0_13_310)">
<g clip-path="url(#clip1_13_310)">
<path d="M24.192 153.224H54.272V165H9.6V76.04H24.192V153.224ZM83.627 76.04V165H69.035V76.04H83.627Z" fill="#3A6AA9"/>
</g>
<rect x="124.18" y="96.1804" width="132" height="132" transform="rotate(-30 124.18 96.1804)" fill="#4CBCCC" fill-opacity="0.4"/>
<rect x="124.18" y="96.1804" width="132" height="132" transform="rotate(-30 124.18 96.1804)" fill="white" fill-opacity="0.2"/>
<rect x="124.18" y="96.1804" width="132" height="132" transform="rotate(-30 124.18 96.1804)" fill="#3A6AA9" fill-opacity="0.2"/>
<rect x="148.338" y="54.3381" width="132" height="132" fill="#4CBCCC" fill-opacity="0.4"/>
<rect x="148.338" y="54.3381" width="132" height="132" fill="white" fill-opacity="0.2"/>
<rect x="148.338" y="54.3381" width="132" height="132" fill="#3A6AA9" fill-opacity="0.2"/>
<rect x="133.505" y="73.669" width="132" height="132" transform="rotate(-15 133.505 73.669)" fill="#4CBCCC" fill-opacity="0.4"/>
<rect x="133.505" y="73.669" width="132" height="132" transform="rotate(-15 133.505 73.669)" fill="white" fill-opacity="0.2"/>
<rect x="133.505" y="73.669" width="132" height="132" transform="rotate(-15 133.505 73.669)" fill="#3A6AA9" fill-opacity="0.4"/>
<rect x="133.505" y="167.007" width="132" height="132" transform="rotate(-75 133.505 167.007)" fill="#4CBCCC" fill-opacity="0.4"/>
<rect x="133.505" y="167.007" width="132" height="132" transform="rotate(-75 133.505 167.007)" fill="white" fill-opacity="0.2"/>
<rect x="133.505" y="167.007" width="132" height="132" transform="rotate(-75 133.505 167.007)" fill="#3A6AA9" fill-opacity="0.4"/>
<rect x="121" y="120.338" width="132" height="132" transform="rotate(-45 121 120.338)" fill="#4CBCCC" fill-opacity="0.4"/>
<rect x="121" y="120.338" width="132" height="132" transform="rotate(-45 121 120.338)" fill="white" fill-opacity="0.2"/>
<rect x="121" y="120.338" width="132" height="132" transform="rotate(-45 121 120.338)" fill="#3A6AA9" fill-opacity="0.4"/>
<rect x="124.18" y="144.496" width="132" height="132" transform="rotate(-60 124.18 144.496)" fill="#4CBCCC" fill-opacity="0.4"/>
<rect x="124.18" y="144.496" width="132" height="132" transform="rotate(-60 124.18 144.496)" fill="white" fill-opacity="0.2"/>
<rect x="124.18" y="144.496" width="132" height="132" transform="rotate(-60 124.18 144.496)" fill="#3A6AA9" fill-opacity="0.2"/>
<g filter="url(#filter0_f_13_310)">
<circle cx="214" cy="120" r="60" fill="#4CBCCC"/>
</g>
<circle cx="214" cy="120" r="40" fill="#4CBCCC"/>
<path d="M264.031 125.094C261.182 125.098 258.405 125.983 256.079 127.628C253.753 129.273 251.993 131.597 251.04 134.281H239.779L231.64 109.86C231.329 108.929 230.729 108.122 229.927 107.558C229.125 106.993 228.163 106.7 227.183 106.721C226.202 106.742 225.254 107.076 224.477 107.675C223.7 108.274 223.135 109.106 222.866 110.049L210.086 154.769L195.062 64.617C194.888 63.5761 194.36 62.627 193.569 61.9292C192.777 61.2314 191.769 60.8274 190.714 60.7853C189.66 60.7432 188.623 61.0655 187.778 61.6979C186.933 62.3304 186.332 63.2345 186.075 64.2581L168.57 134.281H153.781C152.563 134.281 151.394 134.765 150.533 135.627C149.671 136.488 149.188 137.657 149.188 138.875C149.188 140.093 149.671 141.262 150.533 142.123C151.394 142.985 152.563 143.469 153.781 143.469H172.156C173.181 143.469 174.176 143.126 174.983 142.496C175.79 141.865 176.364 140.983 176.612 139.989L189.63 87.916L204.376 176.38C204.546 177.41 205.061 178.352 205.838 179.049C206.614 179.747 207.606 180.16 208.648 180.219H208.909C209.907 180.218 210.877 179.893 211.673 179.292C212.469 178.691 213.048 177.847 213.322 176.888L227.62 126.851L232.11 140.328C232.415 141.242 233 142.038 233.783 142.602C234.565 143.165 235.505 143.469 236.469 143.469H251.04C251.882 145.851 253.363 147.956 255.32 149.553C257.278 151.15 259.637 152.179 262.14 152.526C264.642 152.873 267.192 152.525 269.511 151.521C271.829 150.516 273.827 148.894 275.285 146.831C276.744 144.768 277.607 142.344 277.781 139.823C277.955 137.302 277.433 134.783 276.271 132.539C275.109 130.295 273.353 128.414 271.195 127.101C269.036 125.788 266.558 125.093 264.031 125.094Z" fill="white"/>
<g clip-path="url(#clip2_13_310)">
<path d="M389.808 165L369.328 129.416H358.192V165H343.6V76.04H374.32C381.147 76.04 386.907 77.2347 391.6 79.624C396.379 82.0133 399.92 85.2133 402.224 89.224C404.613 93.2347 405.808 97.7147 405.808 102.664C405.808 108.467 404.101 113.757 400.688 118.536C397.36 123.229 392.197 126.429 385.2 128.136L407.216 165H389.808ZM358.192 117.768H374.32C379.781 117.768 383.877 116.403 386.608 113.672C389.424 110.941 390.832 107.272 390.832 102.664C390.832 98.056 389.467 94.472 386.736 91.912C384.005 89.2667 379.867 87.944 374.32 87.944H358.192V117.768ZM480.667 146.824H443.419L437.019 165H421.787L453.659 75.912H470.555L502.427 165H487.067L480.667 146.824ZM476.571 134.92L462.107 93.576L447.515 134.92H476.571Z" fill="#3A6AA9"/>
</g>
</g>
<defs>
<filter id="filter0_f_13_310" x="124" y="30" width="180" height="180" filterUnits="userSpaceOnUse" color-interpolation-filters="sRGB">
<feFlood flood-opacity="0" result="BackgroundImageFix"/>
<feBlend mode="normal" in="SourceGraphic" in2="BackgroundImageFix" result="shape"/>
<feGaussianBlur stdDeviation="15" result="effect1_foregroundBlur_13_310"/>
</filter>
<clipPath id="clip0_13_310">
<rect width="507" height="240" fill="white"/>
</clipPath>
<clipPath id="clip1_13_310">
<rect width="94" height="192" fill="white" transform="translate(0 24)"/>
</clipPath>
<clipPath id="clip2_13_310">
<rect width="173" height="192" fill="white" transform="translate(334 24)"/>
</clipPath>
</defs>
</svg>
