<svg width="485" height="192" viewBox="0 0 485 192" fill="none" xmlns="http://www.w3.org/2000/svg">
<g clip-path="url(#clip0_13_310)">
<path d="M77.112 52.04V116.168C77.112 124.104 74.68 130.376 69.816 134.984C65.0373 139.592 58.7227 141.896 50.872 141.896C43.0213 141.896 36.664 139.592 31.8 134.984C27.0213 130.376 24.632 124.104 24.632 116.168H39.352C39.4373 120.093 40.4187 123.208 42.296 125.512C44.2587 127.816 47.1173 128.968 50.872 128.968C54.6267 128.968 57.4853 127.816 59.448 125.512C61.4107 123.123 62.392 120.008 62.392 116.168V52.04H77.112ZM143.986 141.896C135.709 141.896 128.071 139.976 121.074 136.136C114.162 132.211 108.658 126.792 104.562 119.88C100.551 112.883 98.546 105.032 98.546 96.328C98.546 87.624 100.551 79.816 104.562 72.904C108.658 65.992 114.162 60.616 121.074 56.776C128.071 52.8507 135.709 50.888 143.986 50.888C152.349 50.888 159.986 52.8507 166.898 56.776C173.895 60.616 179.399 65.992 183.41 72.904C187.421 79.816 189.426 87.624 189.426 96.328C189.426 105.032 187.421 112.883 183.41 119.88C179.399 126.792 173.895 132.211 166.898 136.136C159.986 139.976 152.349 141.896 143.986 141.896ZM143.986 129.224C149.874 129.224 155.122 127.901 159.73 125.256C164.338 122.525 167.922 118.685 170.482 113.736C173.127 108.701 174.45 102.899 174.45 96.328C174.45 89.7573 173.127 83.9973 170.482 79.048C167.922 74.0987 164.338 70.3013 159.73 67.656C155.122 65.0107 149.874 63.688 143.986 63.688C138.098 63.688 132.85 65.0107 128.242 67.656C123.634 70.3013 120.007 74.0987 117.362 79.048C114.802 83.9973 113.522 89.7573 113.522 96.328C113.522 102.899 114.802 108.701 117.362 113.736C120.007 118.685 123.634 122.525 128.242 125.256C132.85 127.901 138.098 129.224 143.986 129.224ZM263.817 52.04V63.944H240.137V141H225.545V63.944H201.737V52.04H263.817ZM425.863 141H411.271L367.367 74.568V141H352.775V51.912H367.367L411.271 118.216V51.912H425.863V141Z" fill="#3A6AA9"/>
<g clip-path="url(#clip1_13_310)">
<path d="M314.248 51.0902L257.09 84.0902L290.09 141.248L347.248 108.248L314.248 51.0902Z" fill="#4CBCCC" fill-opacity="0.4"/>
<path d="M314.248 51.0902L257.09 84.0902L290.09 141.248L347.248 108.248L314.248 51.0902Z" fill="white" fill-opacity="0.2"/>
<path d="M314.248 51.0902L257.09 84.0902L290.09 141.248L347.248 108.248L314.248 51.0902Z" fill="#3A6AA9" fill-opacity="0.2"/>
<path d="M335.169 63.1691H269.169V129.169H335.169V63.1691Z" fill="#4CBCCC" fill-opacity="0.4"/>
<path d="M335.169 63.1691H269.169V129.169H335.169V63.1691Z" fill="white" fill-opacity="0.2"/>
<path d="M335.169 63.1691H269.169V129.169H335.169V63.1691Z" fill="#3A6AA9" fill-opacity="0.2"/>
<path d="M325.504 55.7524L261.752 72.8345L278.834 136.586L342.586 119.504L325.504 55.7524Z" fill="#4CBCCC" fill-opacity="0.4"/>
<path d="M325.504 55.7524L261.752 72.8345L278.834 136.586L342.586 119.504L325.504 55.7524Z" fill="white" fill-opacity="0.2"/>
<path d="M325.504 55.7524L261.752 72.8345L278.834 136.586L342.586 119.504L325.504 55.7524Z" fill="#3A6AA9" fill-opacity="0.4"/>
<path d="M278.834 55.7524L261.752 119.504L325.504 136.586L342.586 72.8345L278.834 55.7524Z" fill="#4CBCCC" fill-opacity="0.4"/>
<path d="M278.834 55.7524L261.752 119.504L325.504 136.586L342.586 72.8345L278.834 55.7524Z" fill="white" fill-opacity="0.2"/>
<path d="M278.834 55.7524L261.752 119.504L325.504 136.586L342.586 72.8345L278.834 55.7524Z" fill="#3A6AA9" fill-opacity="0.4"/>
<path d="M302.169 49.5L255.5 96.169L302.169 142.838L348.838 96.169L302.169 49.5Z" fill="#4CBCCC" fill-opacity="0.4"/>
<path d="M302.169 49.5L255.5 96.169L302.169 142.838L348.838 96.169L302.169 49.5Z" fill="white" fill-opacity="0.2"/>
<path d="M302.169 49.5L255.5 96.169L302.169 142.838L348.838 96.169L302.169 49.5Z" fill="#3A6AA9" fill-opacity="0.4"/>
<path d="M290.09 51.0903L257.09 108.248L314.248 141.248L347.248 84.0903L290.09 51.0903Z" fill="#4CBCCC" fill-opacity="0.4"/>
<path d="M290.09 51.0903L257.09 108.248L314.248 141.248L347.248 84.0903L290.09 51.0903Z" fill="white" fill-opacity="0.2"/>
<path d="M290.09 51.0903L257.09 108.248L314.248 141.248L347.248 84.0903L290.09 51.0903Z" fill="#3A6AA9" fill-opacity="0.2"/>
<g filter="url(#filter0_f_13_310)">
<path d="M302 126C318.569 126 332 112.569 332 96C332 79.4315 318.569 66 302 66C285.431 66 272 79.4315 272 96C272 112.569 285.431 126 302 126Z" fill="white"/>
</g>
<path d="M302 116C313.046 116 322 107.046 322 96C322 84.9543 313.046 76 302 76C290.954 76 282 84.9543 282 96C282 107.046 290.954 116 302 116Z" fill="white"/>
<path d="M327.016 98.547C325.591 98.549 324.202 98.9915 323.039 99.814C321.876 100.637 320.996 101.799 320.52 103.141H314.89L310.82 90.93C310.664 90.4645 310.365 90.061 309.964 89.779C309.563 89.4965 309.081 89.35 308.591 89.3605C308.101 89.371 307.627 89.538 307.239 89.8375C306.85 90.137 306.567 90.553 306.433 91.0245L300.043 113.385L292.531 68.3085C292.444 67.7881 292.18 67.3135 291.784 66.9646C291.388 66.6157 290.885 66.4137 290.357 66.3927C289.83 66.3716 289.311 66.5328 288.889 66.849C288.467 67.1652 288.166 67.6173 288.038 68.1291L279.285 103.141H271.891C271.281 103.141 270.697 103.383 270.267 103.814C269.836 104.244 269.594 104.829 269.594 105.438C269.594 106.047 269.836 106.631 270.267 107.062C270.697 107.493 271.281 107.735 271.891 107.735H281.078C281.59 107.735 282.088 107.563 282.491 107.248C282.895 106.933 283.182 106.492 283.306 105.995L289.815 79.958L297.188 124.19C297.273 124.705 297.53 125.176 297.919 125.525C298.307 125.874 298.803 126.08 299.324 126.11H299.454C299.953 126.109 300.438 125.947 300.836 125.646C301.234 125.346 301.524 124.924 301.661 124.444L308.81 99.4255L311.055 106.164C311.208 106.621 311.5 107.019 311.892 107.301C312.283 107.583 312.752 107.735 313.234 107.735H320.52C320.941 108.926 321.682 109.978 322.66 110.777C323.639 111.575 324.818 112.09 326.07 112.263C327.321 112.437 328.596 112.263 329.756 111.761C330.915 111.258 331.914 110.447 332.643 109.416C333.372 108.384 333.804 107.172 333.891 105.912C333.978 104.651 333.716 103.392 333.135 102.27C332.554 101.148 331.677 100.207 330.598 99.5505C329.518 98.894 328.279 98.5465 327.016 98.547Z" fill="#4CBCCC"/>
</g>
</g>
<defs>
<filter id="filter0_f_13_310" x="242" y="36" width="120" height="120" filterUnits="userSpaceOnUse" color-interpolation-filters="sRGB">
<feFlood flood-opacity="0" result="BackgroundImageFix"/>
<feBlend mode="normal" in="SourceGraphic" in2="BackgroundImageFix" result="shape"/>
<feGaussianBlur stdDeviation="15" result="effect1_foregroundBlur_13_310"/>
</filter>
<clipPath id="clip0_13_310">
<rect width="485" height="192" fill="white"/>
</clipPath>
<clipPath id="clip1_13_310">
<rect width="120" height="120" fill="white" transform="translate(242 36)"/>
</clipPath>
</defs>
</svg>
