<svg width="624" height="224" viewBox="0 0 624 224" fill="none" xmlns="http://www.w3.org/2000/svg">
<rect width="624" height="224" fill="#1E1E1E"/>
<g clip-path="url(#clip0_10_199)">
<rect x="30.1804" y="88.1804" width="132" height="132" transform="rotate(-30 30.1804 88.1804)" fill="#4CBCCC" fill-opacity="0.4"/>
<rect x="30.1804" y="88.1804" width="132" height="132" transform="rotate(-30 30.1804 88.1804)" fill="white" fill-opacity="0.2"/>
<rect x="30.1804" y="88.1804" width="132" height="132" transform="rotate(-30 30.1804 88.1804)" fill="#3A6AA9" fill-opacity="0.2"/>
<rect x="54.3381" y="46.3381" width="132" height="132" fill="#4CBCCC" fill-opacity="0.4"/>
<rect x="54.3381" y="46.3381" width="132" height="132" fill="white" fill-opacity="0.2"/>
<rect x="54.3381" y="46.3381" width="132" height="132" fill="#3A6AA9" fill-opacity="0.2"/>
<rect x="39.5049" y="65.669" width="132" height="132" transform="rotate(-15 39.5049 65.669)" fill="#4CBCCC" fill-opacity="0.4"/>
<rect x="39.5049" y="65.669" width="132" height="132" transform="rotate(-15 39.5049 65.669)" fill="white" fill-opacity="0.2"/>
<rect x="39.5049" y="65.669" width="132" height="132" transform="rotate(-15 39.5049 65.669)" fill="#3A6AA9" fill-opacity="0.4"/>
<rect x="39.5049" y="159.007" width="132" height="132" transform="rotate(-75 39.5049 159.007)" fill="#4CBCCC" fill-opacity="0.4"/>
<rect x="39.5049" y="159.007" width="132" height="132" transform="rotate(-75 39.5049 159.007)" fill="white" fill-opacity="0.2"/>
<rect x="39.5049" y="159.007" width="132" height="132" transform="rotate(-75 39.5049 159.007)" fill="#3A6AA9" fill-opacity="0.4"/>
<rect x="27" y="112.338" width="132" height="132" transform="rotate(-45 27 112.338)" fill="#4CBCCC" fill-opacity="0.4"/>
<rect x="27" y="112.338" width="132" height="132" transform="rotate(-45 27 112.338)" fill="white" fill-opacity="0.2"/>
<rect x="27" y="112.338" width="132" height="132" transform="rotate(-45 27 112.338)" fill="#3A6AA9" fill-opacity="0.4"/>
<rect x="30.1804" y="136.496" width="132" height="132" transform="rotate(-60 30.1804 136.496)" fill="#4CBCCC" fill-opacity="0.4"/>
<rect x="30.1804" y="136.496" width="132" height="132" transform="rotate(-60 30.1804 136.496)" fill="white" fill-opacity="0.2"/>
<rect x="30.1804" y="136.496" width="132" height="132" transform="rotate(-60 30.1804 136.496)" fill="#3A6AA9" fill-opacity="0.2"/>
<g filter="url(#filter0_f_10_199)">
<circle cx="120" cy="112" r="60" fill="#4CBCCC"/>
</g>
<circle cx="120" cy="112" r="40" fill="#4CBCCC"/>
<path d="M170.031 117.094C167.182 117.098 164.405 117.983 162.079 119.628C159.753 121.273 157.993 123.597 157.04 126.281H145.779L137.64 101.86C137.329 100.929 136.729 100.122 135.927 99.5577C135.125 98.9928 134.163 98.6995 133.183 98.7207C132.202 98.7419 131.254 99.0764 130.477 99.6754C129.7 100.274 129.135 101.106 128.866 102.049L116.086 146.769L101.062 56.617C100.888 55.5761 100.36 54.627 99.5686 53.9292C98.7768 53.2314 97.769 52.8274 96.7144 52.7853C95.6599 52.7432 94.623 53.0655 93.7782 53.6979C92.9333 54.3304 92.332 55.2345 92.0753 56.2581L74.5703 126.281H59.7812C58.5629 126.281 57.3945 126.765 56.533 127.627C55.6715 128.488 55.1875 129.657 55.1875 130.875C55.1875 132.093 55.6715 133.262 56.533 134.123C57.3945 134.985 58.5629 135.469 59.7812 135.469H78.1562C79.1806 135.469 80.1756 135.126 80.9829 134.496C81.7903 133.865 82.3638 132.983 82.6122 131.989L95.6297 79.916L110.376 168.38C110.546 169.41 111.061 170.352 111.838 171.049C112.614 171.747 113.606 172.16 114.648 172.219H114.909C115.907 172.218 116.877 171.893 117.673 171.292C118.469 170.691 119.048 169.847 119.322 168.888L133.62 118.851L138.11 132.328C138.415 133.242 139 134.038 139.783 134.602C140.565 135.165 141.505 135.469 142.469 135.469H157.04C157.882 137.851 159.363 139.956 161.32 141.553C163.278 143.15 165.637 144.179 168.14 144.526C170.642 144.873 173.192 144.525 175.511 143.521C177.829 142.516 179.827 140.894 181.285 138.831C182.744 136.768 183.607 134.344 183.781 131.823C183.955 129.302 183.433 126.783 182.271 124.539C181.109 122.295 179.353 120.414 177.195 119.101C175.036 117.788 172.558 117.093 170.031 117.094Z" fill="white"/>
<path d="M262.192 145.224H292.272V157H247.6V68.04H262.192V145.224ZM321.627 68.04V157H307.035V68.04H321.627ZM383.921 157.896C375.644 157.896 368.006 155.976 361.009 152.136C354.097 148.211 348.593 142.792 344.497 135.88C340.486 128.883 338.481 121.032 338.481 112.328C338.481 103.624 340.486 95.816 344.497 88.904C348.593 81.992 354.097 76.616 361.009 72.776C368.006 68.8507 375.644 66.888 383.921 66.888C392.284 66.888 399.921 68.8507 406.833 72.776C413.83 76.616 419.334 81.992 423.345 88.904C427.356 95.816 429.361 103.624 429.361 112.328C429.361 121.032 427.356 128.883 423.345 135.88C419.334 142.792 413.83 148.211 406.833 152.136C399.921 155.976 392.284 157.896 383.921 157.896ZM383.921 145.224C389.809 145.224 395.057 143.901 399.665 141.256C404.273 138.525 407.857 134.685 410.417 129.736C413.062 124.701 414.385 118.899 414.385 112.328C414.385 105.757 413.062 99.9973 410.417 95.048C407.857 90.0987 404.273 86.3013 399.665 83.656C395.057 81.0107 389.809 79.688 383.921 79.688C378.033 79.688 372.785 81.0107 368.177 83.656C363.569 86.3013 359.942 90.0987 357.297 95.048C354.737 99.9973 353.457 105.757 353.457 112.328C353.457 118.899 354.737 124.701 357.297 129.736C359.942 134.685 363.569 138.525 368.177 141.256C372.785 143.901 378.033 145.224 383.921 145.224ZM492.488 157L472.008 121.416H460.872V157H446.28V68.04H477C483.827 68.04 489.587 69.2347 494.28 71.624C499.059 74.0133 502.6 77.2133 504.904 81.224C507.293 85.2347 508.488 89.7147 508.488 94.664C508.488 100.467 506.781 105.757 503.368 110.536C500.04 115.229 494.877 118.429 487.88 120.136L509.896 157H492.488ZM460.872 109.768H477C482.461 109.768 486.557 108.403 489.288 105.672C492.104 102.941 493.512 99.272 493.512 94.664C493.512 90.056 492.147 86.472 489.416 83.912C486.685 81.2667 482.547 79.944 477 79.944H460.872V109.768ZM583.347 138.824H546.099L539.699 157H524.467L556.339 67.912H573.235L605.107 157H589.747L583.347 138.824ZM579.251 126.92L564.787 85.576L550.195 126.92H579.251Z" fill="#3A6AA9"/>
</g>
<defs>
<filter id="filter0_f_10_199" x="30" y="22" width="180" height="180" filterUnits="userSpaceOnUse" color-interpolation-filters="sRGB">
<feFlood flood-opacity="0" result="BackgroundImageFix"/>
<feBlend mode="normal" in="SourceGraphic" in2="BackgroundImageFix" result="shape"/>
<feGaussianBlur stdDeviation="15" result="effect1_foregroundBlur_10_199"/>
</filter>
<clipPath id="clip0_10_199">
<rect width="624" height="224" fill="white"/>
</clipPath>
</defs>
</svg>
