<svg width="680" height="224" viewBox="0 0 680 224" fill="none" xmlns="http://www.w3.org/2000/svg">
<g clip-path="url(#clip0_10_200)">
<rect x="30.1804" y="88.1804" width="132" height="132" transform="rotate(-30 30.1804 88.1804)" fill="#4CBCCC" fill-opacity="0.4"/>
<rect x="30.1804" y="88.1804" width="132" height="132" transform="rotate(-30 30.1804 88.1804)" fill="white" fill-opacity="0.2"/>
<rect x="30.1804" y="88.1804" width="132" height="132" transform="rotate(-30 30.1804 88.1804)" fill="#3A6AA9" fill-opacity="0.2"/>
<rect x="54.3381" y="46.3381" width="132" height="132" fill="#4CBCCC" fill-opacity="0.4"/>
<rect x="54.3381" y="46.3381" width="132" height="132" fill="white" fill-opacity="0.2"/>
<rect x="54.3381" y="46.3381" width="132" height="132" fill="#3A6AA9" fill-opacity="0.2"/>
<rect x="39.5049" y="65.669" width="132" height="132" transform="rotate(-15 39.5049 65.669)" fill="#4CBCCC" fill-opacity="0.4"/>
<rect x="39.5049" y="65.669" width="132" height="132" transform="rotate(-15 39.5049 65.669)" fill="white" fill-opacity="0.2"/>
<rect x="39.5049" y="65.669" width="132" height="132" transform="rotate(-15 39.5049 65.669)" fill="#3A6AA9" fill-opacity="0.4"/>
<rect x="39.5049" y="159.007" width="132" height="132" transform="rotate(-75 39.5049 159.007)" fill="#4CBCCC" fill-opacity="0.4"/>
<rect x="39.5049" y="159.007" width="132" height="132" transform="rotate(-75 39.5049 159.007)" fill="white" fill-opacity="0.2"/>
<rect x="39.5049" y="159.007" width="132" height="132" transform="rotate(-75 39.5049 159.007)" fill="#3A6AA9" fill-opacity="0.4"/>
<rect x="27" y="112.338" width="132" height="132" transform="rotate(-45 27 112.338)" fill="#4CBCCC" fill-opacity="0.4"/>
<rect x="27" y="112.338" width="132" height="132" transform="rotate(-45 27 112.338)" fill="white" fill-opacity="0.2"/>
<rect x="27" y="112.338" width="132" height="132" transform="rotate(-45 27 112.338)" fill="#3A6AA9" fill-opacity="0.4"/>
<rect x="30.1804" y="136.496" width="132" height="132" transform="rotate(-60 30.1804 136.496)" fill="#4CBCCC" fill-opacity="0.4"/>
<rect x="30.1804" y="136.496" width="132" height="132" transform="rotate(-60 30.1804 136.496)" fill="white" fill-opacity="0.2"/>
<rect x="30.1804" y="136.496" width="132" height="132" transform="rotate(-60 30.1804 136.496)" fill="#3A6AA9" fill-opacity="0.2"/>
<g filter="url(#filter0_f_10_200)">
<circle cx="120" cy="112" r="60" fill="#4CBCCC"/>
</g>
<circle cx="120" cy="112" r="40" fill="#4CBCCC"/>
<path d="M170.031 117.094C167.182 117.098 164.405 117.983 162.079 119.628C159.753 121.273 157.993 123.597 157.04 126.281H145.779L137.64 101.86C137.329 100.929 136.729 100.122 135.927 99.5577C135.125 98.9928 134.163 98.6995 133.183 98.7207C132.202 98.7419 131.254 99.0764 130.477 99.6754C129.7 100.274 129.135 101.106 128.866 102.049L116.086 146.769L101.062 56.617C100.888 55.5761 100.36 54.627 99.5686 53.9292C98.7768 53.2314 97.769 52.8274 96.7144 52.7853C95.6599 52.7432 94.623 53.0655 93.7782 53.6979C92.9333 54.3304 92.332 55.2345 92.0753 56.2581L74.5703 126.281H59.7812C58.5629 126.281 57.3945 126.765 56.533 127.627C55.6715 128.488 55.1875 129.657 55.1875 130.875C55.1875 132.093 55.6715 133.262 56.533 134.123C57.3945 134.985 58.5629 135.469 59.7812 135.469H78.1562C79.1806 135.469 80.1756 135.126 80.9829 134.496C81.7903 133.865 82.3638 132.983 82.6122 131.989L95.6297 79.916L110.376 168.38C110.546 169.41 111.061 170.352 111.838 171.049C112.614 171.747 113.606 172.16 114.648 172.219H114.909C115.907 172.218 116.877 171.893 117.673 171.292C118.469 170.691 119.048 169.847 119.322 168.888L133.62 118.851L138.11 132.328C138.415 133.242 139 134.038 139.783 134.602C140.565 135.165 141.505 135.469 142.469 135.469H157.04C157.882 137.851 159.363 139.956 161.32 141.553C163.278 143.15 165.637 144.179 168.14 144.526C170.642 144.873 173.192 144.525 175.511 143.521C177.829 142.516 179.827 140.894 181.285 138.831C182.744 136.768 183.607 134.344 183.781 131.823C183.955 129.302 183.433 126.783 182.271 124.539C181.109 122.295 179.353 120.414 177.195 119.101C175.036 117.788 172.558 117.093 170.031 117.094Z" fill="white"/>
<path d="M272.112 69.04V133.168C272.112 141.104 269.68 147.376 264.816 151.984C260.037 156.592 253.723 158.896 245.872 158.896C238.021 158.896 231.664 156.592 226.8 151.984C222.021 147.376 219.632 141.104 219.632 133.168H234.352C234.437 137.093 235.419 140.208 237.296 142.512C239.259 144.816 242.117 145.968 245.872 145.968C249.627 145.968 252.485 144.816 254.448 142.512C256.411 140.123 257.392 137.008 257.392 133.168V69.04H272.112ZM338.986 158.896C330.709 158.896 323.071 156.976 316.074 153.136C309.162 149.211 303.658 143.792 299.562 136.88C295.551 129.883 293.546 122.032 293.546 113.328C293.546 104.624 295.551 96.816 299.562 89.904C303.658 82.992 309.162 77.616 316.074 73.776C323.071 69.8507 330.709 67.888 338.986 67.888C347.349 67.888 354.986 69.8507 361.898 73.776C368.895 77.616 374.399 82.992 378.41 89.904C382.421 96.816 384.426 104.624 384.426 113.328C384.426 122.032 382.421 129.883 378.41 136.88C374.399 143.792 368.895 149.211 361.898 153.136C354.986 156.976 347.349 158.896 338.986 158.896ZM338.986 146.224C344.874 146.224 350.122 144.901 354.73 142.256C359.338 139.525 362.922 135.685 365.482 130.736C368.127 125.701 369.45 119.899 369.45 113.328C369.45 106.757 368.127 100.997 365.482 96.048C362.922 91.0987 359.338 87.3013 354.73 84.656C350.122 82.0107 344.874 80.688 338.986 80.688C333.098 80.688 327.85 82.0107 323.242 84.656C318.634 87.3013 315.007 91.0987 312.362 96.048C309.802 100.997 308.522 106.757 308.522 113.328C308.522 119.899 309.802 125.701 312.362 130.736C315.007 135.685 318.634 139.525 323.242 142.256C327.85 144.901 333.098 146.224 338.986 146.224ZM458.817 69.04V80.944H435.137V158H420.545V80.944H396.737V69.04H458.817ZM516.731 158.896C508.454 158.896 500.816 156.976 493.819 153.136C486.907 149.211 481.403 143.792 477.307 136.88C473.296 129.883 471.291 122.032 471.291 113.328C471.291 104.624 473.296 96.816 477.307 89.904C481.403 82.992 486.907 77.616 493.819 73.776C500.816 69.8507 508.454 67.888 516.731 67.888C525.094 67.888 532.731 69.8507 539.643 73.776C546.64 77.616 552.144 82.992 556.155 89.904C560.166 96.816 562.171 104.624 562.171 113.328C562.171 122.032 560.166 129.883 556.155 136.88C552.144 143.792 546.64 149.211 539.643 153.136C532.731 156.976 525.094 158.896 516.731 158.896ZM516.731 146.224C522.619 146.224 527.867 144.901 532.475 142.256C537.083 139.525 540.667 135.685 543.227 130.736C545.872 125.701 547.195 119.899 547.195 113.328C547.195 106.757 545.872 100.997 543.227 96.048C540.667 91.0987 537.083 87.3013 532.475 84.656C527.867 82.0107 522.619 80.688 516.731 80.688C510.843 80.688 505.595 82.0107 500.987 84.656C496.379 87.3013 492.752 91.0987 490.107 96.048C487.547 100.997 486.267 106.757 486.267 113.328C486.267 119.899 487.547 125.701 490.107 130.736C492.752 135.685 496.379 139.525 500.987 142.256C505.595 144.901 510.843 146.224 516.731 146.224ZM652.178 158H637.586L593.682 91.568V158H579.09V68.912H593.682L637.586 135.216V68.912H652.178V158Z" fill="#3A6AA9"/>
</g>
<defs>
<filter id="filter0_f_10_200" x="30" y="22" width="180" height="180" filterUnits="userSpaceOnUse" color-interpolation-filters="sRGB">
<feFlood flood-opacity="0" result="BackgroundImageFix"/>
<feBlend mode="normal" in="SourceGraphic" in2="BackgroundImageFix" result="shape"/>
<feGaussianBlur stdDeviation="15" result="effect1_foregroundBlur_10_200"/>
</filter>
<clipPath id="clip0_10_200">
<rect width="680" height="224" fill="white"/>
</clipPath>
</defs>
</svg>
